# xmcd CD database file
#
# Track frame offsets:
#	150
#	27207
#	52794
#	63098
#	90966
#	140533
#	167127
#	193877
#	220632
#
# Disc length: 3832 seconds
#
# Revision: 0
# Processed by: cddbd v1.5.2PL0 Copyright (c) Steve Scherf et al.
# Submitted via: CDex 1.70beta2
#
DISCID=6f0ef609
DTITLE=George Genna - Breakout
DYEAR=2001
DGENRE=Jazz
TTITLE0=Remember That Time
TTITLE1=Thinking Only of You
TTITLE2=Breakout
TTITLE3=Mood
TTITLE4=Slow Down Hoe Down
TTITLE5=Out of Shadow
TTITLE6=Sidestep
TTITLE7=Slash Gordon
TTITLE8=Breakout (Live)
EXTD=YEAR: 2001
EXTT0=
EXTT1=
EXTT2=
EXTT3=
EXTT4=
EXTT5=
EXTT6=
EXTT7=
EXTT8=
PLAYORDER=
